<svg width="38" height="32" viewBox="0 0 38 32" fill="none" xmlns="http://www.w3.org/2000/svg">
<path d="M26.5071 29.1524V26.2061C26.5071 24.6433 25.8863 23.1446 24.7812 22.0395C23.6762 20.9345 22.1774 20.3137 20.6146 20.3137H8.82966C7.26688 20.3137 5.76811 20.9345 4.66306 22.0395C3.55801 23.1446 2.93719 24.6433 2.93719 26.2061V29.1524" stroke="white" stroke-width="4" stroke-linecap="round" stroke-linejoin="round"/>
<path d="M14.7221 14.4212C17.9764 14.4212 20.6146 11.783 20.6146 8.5287C20.6146 5.27438 17.9764 2.63623 14.7221 2.63623C11.4678 2.63623 8.82965 5.27438 8.82965 8.5287C8.82965 11.783 11.4678 14.4212 14.7221 14.4212Z" stroke="white" stroke-width="4" stroke-linecap="round" stroke-linejoin="round"/>
<path d="M35.3457 29.1524V26.2062C35.3448 24.9006 34.9102 23.6323 34.1103 22.6004C33.3104 21.5686 32.1905 20.8316 30.9264 20.5052" stroke="white" stroke-width="4" stroke-linecap="round" stroke-linejoin="round"/>
<path d="M25.0339 2.82776C26.3014 3.15229 27.4249 3.88944 28.2271 4.92299C29.0294 5.95654 29.4648 7.22771 29.4648 8.53609C29.4648 9.84447 29.0294 11.1156 28.2271 12.1492C27.4249 13.1827 26.3014 13.9199 25.0339 14.2444" stroke="white" stroke-width="4" stroke-linecap="round" stroke-linejoin="round"/>
</svg>
