<svg width="264" height="285" viewBox="0 0 264 285" fill="none" xmlns="http://www.w3.org/2000/svg">
<path fill-rule="evenodd" clip-rule="evenodd" d="M7.84798e-05 207.026C0.0137562 201.845 0.331721 196.668 0.95233 191.524C3.52517 170.007 11.3926 149.463 23.8507 131.732C42.6511 104.932 70.7557 86.0923 102.688 78.8829C134.621 71.6734 168.094 76.6111 196.585 92.7337C197.215 87.4718 197.533 82.1771 197.537 76.8776C197.579 52.8023 190.99 29.1805 178.492 8.60332C158.545 1.01583 137.053 -1.60976 115.866 0.952618C94.6797 3.515 74.4332 11.1886 56.8704 23.3126C39.3076 35.4366 24.9548 51.6477 15.0479 70.5499C5.14094 89.4522 -0.0232191 110.479 7.84798e-05 131.82V207.115V207.026Z" fill="white"/>
<path fill-rule="evenodd" clip-rule="evenodd" d="M131.677 191.015C148.612 200.761 167.499 206.628 186.975 208.195C206.452 209.761 226.033 206.987 244.308 200.073C254.307 183.555 260.554 165.042 262.607 145.843C264.66 126.645 262.468 107.229 256.187 88.9711C249.906 70.7131 239.689 54.0585 226.259 40.186C212.829 26.3134 196.515 15.5619 178.47 8.69214C190.968 29.2694 197.557 52.8912 197.515 76.9664C197.511 82.2659 197.194 87.5606 196.563 92.8225C194.098 113.099 186.953 132.525 175.692 149.566C164.431 166.607 149.363 180.797 131.677 191.015V191.015Z" fill="white"/>
<path fill-rule="evenodd" clip-rule="evenodd" d="M0 284.978L66.4362 246.223C96.2515 263.214 131.52 267.897 164.737 259.278C197.953 250.658 226.494 229.416 244.286 200.072C225.605 207.167 205.555 209.917 185.654 208.115C165.753 206.313 146.523 200.006 129.42 189.672C112.317 179.338 97.7903 165.247 86.9394 148.468C76.0886 131.688 69.1983 112.659 66.7905 92.8223C49.7625 102.477 35.095 115.798 23.8506 131.82C11.3926 149.552 3.52509 170.096 0.952252 191.613C0.331643 196.757 0.0136778 201.933 0 207.115L0 209.329C0.177163 224.831 0 229.969 0 209.329V285L0 284.978Z" fill="white"/>
<path fill-rule="evenodd" clip-rule="evenodd" d="M131.677 191.015C148.613 200.761 167.499 206.628 186.976 208.195C206.452 209.761 226.034 206.987 244.309 200.073C254.307 183.554 260.553 165.039 262.605 145.839C264.656 126.64 262.462 107.223 256.179 88.9651C249.896 70.7068 239.676 54.0526 226.244 40.181C212.812 26.3095 196.495 15.5596 178.448 8.69214C190.963 29.263 197.561 52.8876 197.516 76.9664C197.512 82.2659 197.194 87.5606 196.563 92.8225C194.099 113.099 186.954 132.525 175.693 149.566C164.432 166.607 149.363 180.797 131.677 191.015V191.015Z" fill="white"/>
<path fill-rule="evenodd" clip-rule="evenodd" d="M23.8506 131.82C42.651 105.021 70.7557 86.1806 102.688 78.9712C134.621 71.7618 168.094 76.6995 196.585 92.822C197.226 87.5611 197.544 82.2658 197.537 76.9659C197.579 52.8907 190.99 29.2689 178.492 8.69167C158.552 1.10686 137.068 -1.51958 115.888 1.03835C94.7086 3.59627 74.4676 11.262 56.9069 23.3758C39.3461 35.4896 24.9917 51.6888 15.0787 70.5795C5.16574 89.4701 -0.00892218 110.486 1.1548e-05 131.82V207.114C0.0136893 201.933 0.331654 196.757 0.952264 191.613C3.5251 170.095 11.3926 149.552 23.8506 131.82V131.82Z" fill="white"/>
<path fill-rule="evenodd" clip-rule="evenodd" d="M0 284.978L66.4362 246.223C96.2515 263.214 131.52 267.897 164.737 259.278C197.953 250.658 226.494 229.416 244.286 200.072C225.605 207.167 205.555 209.917 185.654 208.115C165.753 206.313 146.523 200.006 129.42 189.672C112.317 179.338 97.7903 165.247 86.9394 148.468C76.0886 131.688 69.1983 112.659 66.7905 92.8223C49.7625 102.477 35.095 115.798 23.8506 131.82C11.3926 149.552 3.52509 170.096 0.952252 191.613C0.331643 196.757 0.0136778 201.933 0 207.115L0 209.329C0.177163 224.831 0 229.969 0 209.329V285L0 284.978Z" fill="white"/>
<path fill-rule="evenodd" clip-rule="evenodd" d="M0 209.307C0 229.947 0.177163 224.809 0 209.307V209.307Z" fill="white"/>
<path fill-rule="evenodd" clip-rule="evenodd" d="M0 209.307C0 229.947 0.177163 224.809 0 209.307V209.307Z" fill="white"/>
<path fill-rule="evenodd" clip-rule="evenodd" d="M0 209.307C0 229.947 0.177163 224.809 0 209.307V209.307Z" fill="white"/>
</svg>
