<svg width="130" height="41" viewBox="0 0 130 41" fill="none" xmlns="http://www.w3.org/2000/svg">
<path fill-rule="evenodd" clip-rule="evenodd" d="M1.11604e-05 29.4405C0.00195623 28.7037 0.047173 27.9676 0.135428 27.236C0.501302 24.1761 1.62011 21.2547 3.39173 18.7331C6.06527 14.9221 10.0619 12.2429 14.603 11.2177C19.144 10.1924 23.9041 10.8946 27.9557 13.1874C28.0454 12.4391 28.0906 11.6861 28.0911 10.9325C28.0971 7.50885 27.16 4.14967 25.3828 1.22345C22.5462 0.144458 19.4899 -0.228919 16.477 0.135469C13.4641 0.499857 10.5849 1.59109 8.08736 3.3152C5.58981 5.03932 3.54874 7.34465 2.13991 10.0327C0.731076 12.7207 -0.00330192 15.7109 1.11604e-05 18.7457V29.4531V29.4405Z" fill="url(#paint0_linear_5_247)"/>
<path fill-rule="evenodd" clip-rule="evenodd" d="M18.7253 27.1636C21.1336 28.5495 23.8194 29.3839 26.5891 29.6067C29.3588 29.8294 32.1434 29.4349 34.7423 28.4517C36.1642 26.1028 37.0526 23.4701 37.3445 20.7399C37.6364 18.0097 37.3247 15.2487 36.4315 12.6523C35.5383 10.0559 34.0854 7.68746 32.1756 5.71469C30.2658 3.74192 27.9457 2.21298 25.3796 1.23605C27.1569 4.16227 28.0939 7.52145 28.088 10.9451C28.0875 11.6987 28.0422 12.4517 27.9525 13.2C27.602 16.0834 26.586 18.8459 24.9846 21.2693C23.3832 23.6926 21.2404 25.7105 18.7253 27.1636V27.1636Z" fill="url(#paint1_linear_5_247)"/>
<path fill-rule="evenodd" clip-rule="evenodd" d="M1.52588e-05 40.5258L9.44769 35.0146C13.6876 37.4307 18.7031 38.0968 23.4267 36.8711C28.1502 35.6453 32.209 32.6246 34.7391 28.4516C32.0826 29.4605 29.2313 29.8516 26.4012 29.5954C23.5712 29.3391 20.8365 28.4423 18.4044 26.9727C15.9723 25.5031 13.9065 23.4993 12.3634 21.1131C10.8203 18.7269 9.84049 16.0209 9.49808 13.2C7.07657 14.5729 4.99076 16.4672 3.39173 18.7457C1.62012 21.2673 0.501306 24.1887 0.135432 27.2486C0.0471771 27.9802 0.00196033 28.7163 1.52588e-05 29.4531L1.52588e-05 29.768C0.0252091 31.9725 1.52588e-05 32.7031 1.52588e-05 29.768V40.5289L1.52588e-05 40.5258Z" fill="url(#paint2_linear_5_247)"/>
<path fill-rule="evenodd" clip-rule="evenodd" d="M18.7253 27.1636C21.1336 28.5495 23.8194 29.3839 26.5891 29.6067C29.3588 29.8294 32.1434 29.4349 34.7423 28.4517C36.1642 26.1026 37.0524 23.4697 37.3441 20.7393C37.6358 18.009 37.3238 15.2479 36.4303 12.6514C35.5368 10.055 34.0835 7.68662 32.1733 5.71399C30.2632 3.74136 27.9428 2.21265 25.3765 1.23605C27.1562 4.16136 28.0945 7.52095 28.088 10.9451C28.0875 11.6987 28.0422 12.4517 27.9525 13.2C27.602 16.0834 26.586 18.8459 24.9846 21.2693C23.3832 23.6926 21.2404 25.7105 18.7253 27.1636V27.1636Z" fill="url(#paint3_linear_5_247)"/>
<path fill-rule="evenodd" clip-rule="evenodd" d="M3.39173 18.7457C6.06527 14.9347 10.0619 12.2555 14.603 11.2303C19.144 10.205 23.9041 10.9072 27.9557 13.1999C28.0469 12.4518 28.0922 11.6988 28.0911 10.9451C28.0971 7.52144 27.1601 4.16226 25.3828 1.23604C22.5472 0.157431 19.492 -0.216067 16.4801 0.147688C13.4682 0.511442 10.5898 1.60156 8.09255 3.32423C5.5953 5.04689 3.55401 7.35053 2.14431 10.0369C0.734618 12.7233 -0.00125354 15.7119 1.6901e-05 18.7457V29.4531C0.00196197 28.7163 0.0471787 27.9802 0.135434 27.2486C0.501308 24.1887 1.62012 21.2673 3.39173 18.7457V18.7457Z" fill="url(#paint4_linear_5_247)"/>
<path fill-rule="evenodd" clip-rule="evenodd" d="M1.52588e-05 40.5258L9.44769 35.0146C13.6876 37.4307 18.7031 38.0968 23.4267 36.8711C28.1502 35.6453 32.209 32.6246 34.7391 28.4516C32.0826 29.4605 29.2313 29.8516 26.4012 29.5954C23.5712 29.3391 20.8365 28.4423 18.4044 26.9727C15.9723 25.5031 13.9065 23.4993 12.3634 21.1131C10.8203 18.7269 9.84049 16.0209 9.49808 13.2C7.07657 14.5729 4.99076 16.4672 3.39173 18.7457C1.62012 21.2673 0.501306 24.1887 0.135432 27.2486C0.0471771 27.9802 0.00196033 28.7163 1.52588e-05 29.4531L1.52588e-05 29.768C0.0252091 31.9725 1.52588e-05 32.7031 1.52588e-05 29.768V40.5289L1.52588e-05 40.5258Z" fill="url(#paint5_linear_5_247)"/>
<path fill-rule="evenodd" clip-rule="evenodd" d="M1.52588e-05 29.7649C1.52588e-05 32.7 0.0252091 31.9693 1.52588e-05 29.7649V29.7649Z" fill="#F9C400"/>
<path fill-rule="evenodd" clip-rule="evenodd" d="M1.52588e-05 29.7649C1.52588e-05 32.7 0.0252091 31.9693 1.52588e-05 29.7649V29.7649Z" fill="#D52E7A"/>
<path fill-rule="evenodd" clip-rule="evenodd" d="M1.52588e-05 29.7649C1.52588e-05 32.7 0.0252091 31.9693 1.52588e-05 29.7649V29.7649Z" fill="#00718F"/>
<path d="M49.4428 25.9181C48.5295 25.4457 47.8367 24.7529 47.3328 23.9026C46.829 23.0208 46.6085 22.0131 46.6085 20.8794V15.5257C46.6085 14.392 46.8605 13.4157 47.3643 12.5339C47.8682 11.6521 48.561 10.9908 49.4743 10.5184C50.3876 10.046 51.3953 9.79409 52.592 9.79409C53.7888 9.79409 54.828 10.046 55.7098 10.5184C56.5916 10.9908 57.3159 11.6521 57.7883 12.5339C58.2921 13.4157 58.5441 14.392 58.5441 15.5257V20.8794C58.5441 22.0131 58.2921 23.0208 57.7883 23.9026C57.2844 24.7844 56.5916 25.4457 55.6783 25.9181C54.765 26.3905 53.7258 26.6424 52.5606 26.6424C51.3953 26.6424 50.3561 26.422 49.4428 25.9181ZM54.954 23.3987C55.5523 22.8004 55.8357 21.9816 55.8357 20.9738V15.4942C55.8357 14.4864 55.5523 13.6676 54.954 13.0693C54.3556 12.4709 53.5683 12.156 52.592 12.156C51.6158 12.156 50.8285 12.4709 50.2301 13.0693C49.6318 13.6676 49.3483 14.4864 49.3483 15.4942V20.9738C49.3483 21.9816 49.6318 22.7689 50.2301 23.3987C50.8285 23.9971 51.6158 24.312 52.592 24.312C53.5683 24.312 54.3556 23.9971 54.954 23.3987Z" fill="#272155"/>
<path d="M67.047 14.5809C67.173 14.6439 67.2044 14.7699 67.173 14.9273L66.7636 17.0373C66.7321 17.2263 66.6376 17.2892 66.4486 17.1948C66.2282 17.1318 65.9448 17.0688 65.6298 17.0688C65.4409 17.0688 65.2834 17.0688 65.1575 17.1003C64.4961 17.1318 63.9607 17.3522 63.5199 17.7931C63.079 18.234 62.8585 18.7694 62.8585 19.4622V26.1386C62.8585 26.2016 62.827 26.296 62.764 26.3275C62.7011 26.3905 62.6381 26.422 62.5751 26.422H60.4021C60.3391 26.422 60.2447 26.3905 60.2132 26.3275C60.1817 26.2645 60.1502 26.2016 60.1502 26.1386V14.7069C60.1502 14.6439 60.1817 14.5494 60.2447 14.5179C60.3076 14.4549 60.3706 14.4235 60.4336 14.4235H62.6066C62.6696 14.4235 62.764 14.4549 62.7955 14.5179C62.8585 14.5809 62.89 14.6439 62.89 14.7069V15.7461C62.89 15.8091 62.89 15.8406 62.9215 15.8406C62.953 15.8406 62.9845 15.8406 63.016 15.7776C63.6773 14.7699 64.5906 14.266 65.7558 14.266C66.2282 14.266 66.6691 14.392 67.047 14.5809Z" fill="#272155"/>
<path d="M68.1492 12.3135C67.8343 11.9986 67.6768 11.5892 67.6768 11.1168C67.6768 10.6444 67.8343 10.235 68.1492 9.92006C68.4641 9.60514 68.8735 9.44768 69.3459 9.44768C69.8183 9.44768 70.2277 9.60514 70.5426 9.92006C70.8575 10.235 71.015 10.6444 71.015 11.1168C71.015 11.5892 70.8575 11.9986 70.5426 12.3135C70.2277 12.6284 69.8183 12.7859 69.3459 12.7859C68.8735 12.7859 68.4641 12.6284 68.1492 12.3135ZM68.0232 26.3275C67.9602 26.2645 67.9288 26.2016 67.9288 26.1386V14.6754C67.9288 14.6124 67.9602 14.5179 68.0232 14.4864C68.0862 14.4235 68.1492 14.392 68.2122 14.392H70.3852C70.4481 14.392 70.5426 14.4235 70.5741 14.4864C70.6371 14.5494 70.6686 14.6124 70.6686 14.6754V26.1386C70.6686 26.2016 70.6371 26.296 70.5741 26.3275C70.5111 26.3905 70.4481 26.422 70.3852 26.422H68.2122C68.1492 26.422 68.0862 26.3905 68.0232 26.3275Z" fill="#272155"/>
<path d="M74.5106 25.6662C73.6289 25.0363 72.999 24.186 72.6526 23.0523C72.4007 22.202 72.2432 21.3203 72.2432 20.3755C72.2432 19.3677 72.3692 18.486 72.6211 17.6986C72.9675 16.5964 73.5974 15.7461 74.5106 15.1478C75.3924 14.5494 76.4632 14.2345 77.7228 14.2345C78.9196 14.2345 79.9273 14.5494 80.8091 15.1478C81.6909 15.7461 82.2892 16.5964 82.6356 17.6672C82.9191 18.423 83.045 19.3047 83.045 20.344C83.045 21.3203 82.9191 22.2335 82.6356 23.0208C82.2892 24.1231 81.6594 25.0048 80.7776 25.6347C79.8958 26.2645 78.8566 26.5795 77.6599 26.5795C76.4632 26.611 75.3924 26.296 74.5106 25.6662ZM79.203 23.7766C79.6124 23.4617 79.9273 22.9893 80.1163 22.391C80.2737 21.8871 80.3367 21.2258 80.3367 20.407C80.3367 19.5567 80.2737 18.8954 80.1163 18.423C79.9588 17.8246 79.6439 17.3837 79.2345 17.0373C78.8251 16.7224 78.2897 16.5649 77.6914 16.5649C77.1245 16.5649 76.6206 16.7224 76.1797 17.0373C75.7703 17.3522 75.4554 17.8246 75.2664 18.423C75.109 18.9583 75.046 19.6197 75.046 20.407C75.046 21.1628 75.109 21.8241 75.2664 22.391C75.4239 22.9893 75.7388 23.4617 76.1797 23.7766C76.6206 24.0916 77.1245 24.2805 77.7543 24.2805C78.2897 24.249 78.7621 24.0916 79.203 23.7766Z" fill="#272155"/>
<path d="M93.28 15.3682C94.0359 16.124 94.4138 17.1318 94.4138 18.4545V26.1386C94.4138 26.2016 94.3823 26.296 94.3193 26.3275C94.2563 26.3905 94.1933 26.422 94.1303 26.422H91.9574C91.8944 26.422 91.7999 26.3905 91.7684 26.3275C91.7054 26.2645 91.6739 26.2016 91.6739 26.1386V18.9898C91.6739 18.2655 91.485 17.6986 91.0756 17.2263C90.6662 16.7854 90.1308 16.5649 89.4695 16.5649C88.8082 16.5649 88.2413 16.7854 87.8319 17.2263C87.4225 17.6671 87.202 18.234 87.202 18.9583V26.1386C87.202 26.2016 87.1706 26.296 87.1076 26.3275C87.0446 26.3905 86.9816 26.422 86.9186 26.422H84.7456C84.6827 26.422 84.5882 26.3905 84.5567 26.3275C84.4937 26.2645 84.4622 26.2016 84.4622 26.1386V14.7069C84.4622 14.6439 84.4937 14.5494 84.5567 14.5179C84.6197 14.4549 84.6827 14.4234 84.7456 14.4234H86.9186C86.9816 14.4234 87.0761 14.4549 87.1076 14.5179C87.1706 14.5809 87.202 14.6439 87.202 14.7069V15.4627C87.202 15.4942 87.202 15.5257 87.2335 15.5572C87.265 15.5887 87.2965 15.5572 87.2965 15.5257C87.9264 14.6754 88.9026 14.266 90.1938 14.266C91.485 14.2345 92.5242 14.6124 93.28 15.3682Z" fill="#272155"/>
<path d="M105.531 10.5814C106.286 10.9908 106.853 11.5577 107.294 12.3135C107.703 13.0693 107.924 13.9196 107.924 14.8958C107.924 15.8406 107.703 16.6909 107.294 17.4152C106.885 18.1395 106.286 18.7064 105.499 19.1158C104.712 19.5252 103.83 19.7142 102.822 19.7142H99.0746C99.0116 19.7142 98.9486 19.7456 98.9486 19.8401V26.1386C98.9486 26.2016 98.9171 26.296 98.8542 26.3275C98.7912 26.3905 98.7282 26.422 98.6652 26.422H96.4922C96.4293 26.422 96.3348 26.3905 96.3033 26.3275C96.2403 26.2645 96.2088 26.2016 96.2088 26.1386V10.235C96.2088 10.172 96.2403 10.0775 96.3033 10.046C96.3663 9.98305 96.4293 9.95155 96.4922 9.95155H102.948C103.924 9.95155 104.775 10.172 105.531 10.5814ZM104.46 16.7854C104.932 16.313 105.184 15.6831 105.184 14.9273C105.184 14.14 104.932 13.5102 104.46 13.0378C103.987 12.5654 103.326 12.3135 102.539 12.3135H99.0431C98.9801 12.3135 98.9172 12.345 98.9172 12.4394V17.3837C98.9172 17.4467 98.9486 17.5097 99.0431 17.5097H102.539C103.326 17.5097 103.956 17.2578 104.46 16.7854Z" fill="#272155"/>
<path d="M116.049 14.7384C116.805 15.0848 117.372 15.5572 117.781 16.1555C118.19 16.7539 118.379 17.4467 118.379 18.2025V26.1386C118.379 26.2015 118.348 26.296 118.285 26.3275C118.222 26.3905 118.159 26.422 118.096 26.422H115.923C115.86 26.422 115.766 26.3905 115.734 26.3275C115.671 26.2645 115.64 26.2015 115.64 26.1386V25.3827C115.64 25.3513 115.64 25.3198 115.608 25.2883C115.577 25.2883 115.545 25.2883 115.514 25.3198C114.758 26.1701 113.624 26.5795 112.175 26.5795C111.01 26.5795 110.034 26.296 109.278 25.6977C108.522 25.0993 108.144 24.2175 108.144 23.0523C108.144 21.8241 108.585 20.8794 109.436 20.1865C110.286 19.4937 111.483 19.1788 113.026 19.1788H115.545C115.608 19.1788 115.671 19.1473 115.671 19.0528V18.4859C115.671 17.8876 115.482 17.4152 115.136 17.0688C114.789 16.7224 114.222 16.5649 113.53 16.5649C112.931 16.5649 112.459 16.6594 112.081 16.8798C111.703 17.1003 111.483 17.3837 111.388 17.7616C111.357 17.9506 111.231 18.0136 111.073 17.9821L108.806 17.6986C108.743 17.6986 108.648 17.6671 108.617 17.6042C108.554 17.5727 108.554 17.5097 108.554 17.4467C108.68 16.5019 109.184 15.7146 110.097 15.0848C111.01 14.4864 112.112 14.1715 113.498 14.1715C114.411 14.2345 115.293 14.392 116.049 14.7384ZM114.852 23.8396C115.388 23.4302 115.671 22.9264 115.671 22.2965V21.1943C115.671 21.1313 115.64 21.0683 115.545 21.0683H113.561C112.742 21.0683 112.081 21.2258 111.609 21.5407C111.136 21.8556 110.884 22.2965 110.884 22.8634C110.884 23.3672 111.073 23.7452 111.451 24.0286C111.829 24.312 112.301 24.438 112.868 24.438C113.656 24.438 114.285 24.249 114.852 23.8396Z" fill="#272155"/>
<path d="M127.355 14.5179C127.418 14.4549 127.481 14.4235 127.544 14.4235H129.717C129.78 14.4235 129.874 14.4549 129.906 14.5179C129.968 14.5809 130 14.6439 130 14.7069V25.6032C130 27.5557 129.433 28.9414 128.331 29.7917C127.197 30.642 125.749 31.0514 123.922 31.0514C123.45 31.0514 122.946 31.0199 122.505 30.9884C122.347 30.9569 122.253 30.8624 122.253 30.6735L122.316 28.7524C122.316 28.595 122.41 28.5005 122.631 28.5005C123.072 28.532 123.481 28.5635 123.859 28.5635C125.024 28.5635 125.906 28.343 126.441 27.8706C127.008 27.3983 127.26 26.6424 127.26 25.5402V25.3513C127.26 25.3198 127.26 25.2883 127.229 25.2568C127.197 25.2568 127.166 25.2568 127.134 25.2883C126.504 25.9811 125.591 26.3275 124.426 26.3275C123.418 26.3275 122.473 26.0756 121.623 25.5402C120.773 25.0363 120.206 24.249 119.859 23.1783C119.671 22.454 119.545 21.5092 119.545 20.344C119.545 19.0528 119.671 18.0451 119.922 17.3522C120.237 16.4075 120.773 15.6202 121.529 15.0533C122.284 14.4864 123.198 14.203 124.237 14.203C125.465 14.203 126.441 14.5494 127.134 15.2737C127.166 15.3052 127.197 15.3367 127.229 15.3052C127.26 15.3052 127.26 15.2737 127.26 15.2108V14.6439C127.292 14.6124 127.323 14.5494 127.355 14.5179ZM127.26 21.6667C127.292 21.3832 127.292 20.9424 127.292 20.344C127.292 19.7456 127.292 19.3362 127.26 19.0528C127.229 18.8009 127.197 18.5489 127.103 18.297C126.977 17.7931 126.725 17.3522 126.347 17.0688C125.969 16.7539 125.465 16.5964 124.867 16.5964C124.3 16.5964 123.827 16.7539 123.45 17.0688C123.072 17.3837 122.788 17.7931 122.599 18.297C122.41 18.7379 122.316 19.4307 122.316 20.3755C122.316 21.3518 122.379 22.0131 122.536 22.4225C122.694 22.9264 122.977 23.3358 123.387 23.6507C123.796 23.9656 124.3 24.1231 124.867 24.1231C125.465 24.1231 125.969 23.9656 126.347 23.6507C126.725 23.3358 126.977 22.9264 127.103 22.4225C127.166 22.202 127.229 21.9501 127.26 21.6667Z" fill="#272155"/>
<defs>
<linearGradient id="paint0_linear_5_247" x1="1.11604e-05" y1="14.7305" x2="28.0879" y2="14.7305" gradientUnits="userSpaceOnUse">
<stop stop-color="#DB5713"/>
<stop offset="1" stop-color="#F7931E"/>
</linearGradient>
<linearGradient id="paint1_linear_5_247" x1="1132.14" y1="1394.36" x2="2245.55" y2="1394.36" gradientUnits="userSpaceOnUse">
<stop stop-color="#DB5713"/>
<stop offset="1" stop-color="#F7931E"/>
</linearGradient>
<linearGradient id="paint2_linear_5_247" x1="1.52588e-05" y1="2342.72" x2="3832.42" y2="2342.72" gradientUnits="userSpaceOnUse">
<stop stop-color="#DB5713"/>
<stop offset="1" stop-color="#F7931E"/>
</linearGradient>
<linearGradient id="paint3_linear_5_247" x1="28.8154" y1="30.39" x2="31.9646" y2="4.40892" gradientUnits="userSpaceOnUse">
<stop stop-color="#DB5713"/>
<stop offset="1" stop-color="#FF732C"/>
</linearGradient>
<linearGradient id="paint4_linear_5_247" x1="-1.5746" y1="16.6909" x2="28.0281" y2="3.77907" gradientUnits="userSpaceOnUse">
<stop stop-color="#F26820"/>
<stop offset="0.572917" stop-color="#FD691E"/>
<stop offset="1" stop-color="#EB641E"/>
</linearGradient>
<linearGradient id="paint5_linear_5_247" x1="0.47238" y1="24.249" x2="30.5475" y2="34.1691" gradientUnits="userSpaceOnUse">
<stop stop-color="#DB5713"/>
<stop offset="0.604167" stop-color="#F16E2A"/>
<stop offset="1" stop-color="#FF7D39"/>
</linearGradient>
</defs>
</svg>
