<svg width="38" height="41" viewBox="0 0 38 41" fill="none" xmlns="http://www.w3.org/2000/svg">
<path fill-rule="evenodd" clip-rule="evenodd" d="M1.11604e-05 29.4405C0.00195623 28.7037 0.047173 27.9676 0.135428 27.236C0.501302 24.1761 1.62011 21.2547 3.39173 18.7331C6.06527 14.9221 10.0619 12.2429 14.603 11.2177C19.144 10.1924 23.9041 10.8946 27.9557 13.1874C28.0454 12.4391 28.0906 11.6861 28.0911 10.9325C28.0971 7.50885 27.16 4.14967 25.3828 1.22345C22.5462 0.144458 19.4899 -0.228919 16.477 0.135469C13.4641 0.499857 10.5849 1.59109 8.08736 3.3152C5.58981 5.03932 3.54874 7.34465 2.13991 10.0327C0.731076 12.7207 -0.00330192 15.7109 1.11604e-05 18.7457V29.4531V29.4405Z" fill="url(#paint0_linear_139_286)"/>
<path fill-rule="evenodd" clip-rule="evenodd" d="M18.7253 27.1636C21.1336 28.5495 23.8194 29.3839 26.5891 29.6066C29.3588 29.8294 32.1434 29.4349 34.7423 28.4516C36.1642 26.1027 37.0526 23.4701 37.3445 20.7398C37.6364 18.0096 37.3247 15.2487 36.4315 12.6522C35.5383 10.0558 34.0854 7.68743 32.1756 5.71466C30.2658 3.74189 27.9457 2.21295 25.3796 1.23602C27.1569 4.16224 28.0939 7.52142 28.088 10.9451C28.0875 11.6987 28.0422 12.4517 27.9525 13.1999C27.602 16.0834 26.586 18.8459 24.9846 21.2692C23.3832 23.6926 21.2404 25.7105 18.7253 27.1636V27.1636Z" fill="url(#paint1_linear_139_286)"/>
<path fill-rule="evenodd" clip-rule="evenodd" d="M0 40.5258L9.44767 35.0146C13.6876 37.4307 18.7031 38.0968 23.4267 36.8711C28.1502 35.6453 32.209 32.6246 34.7391 28.4516C32.0826 29.4605 29.2313 29.8516 26.4012 29.5954C23.5712 29.3391 20.8365 28.4423 18.4044 26.9727C15.9723 25.5031 13.9064 23.4993 12.3634 21.1131C10.8203 18.7269 9.84047 16.0209 9.49806 13.2C7.07656 14.5729 4.99074 16.4672 3.39172 18.7457C1.6201 21.2673 0.501291 24.1887 0.135417 27.2486C0.0471618 27.9802 0.00194507 28.7163 0 29.4531L0 29.768C0.0251938 31.9725 0 32.7031 0 29.768V40.5289L0 40.5258Z" fill="url(#paint2_linear_139_286)"/>
<path fill-rule="evenodd" clip-rule="evenodd" d="M18.7253 27.1636C21.1336 28.5495 23.8194 29.3839 26.5891 29.6066C29.3588 29.8294 32.1434 29.4349 34.7423 28.4516C36.1642 26.1025 37.0524 23.4697 37.3441 20.7393C37.6358 18.0089 37.3238 15.2478 36.4303 12.6514C35.5368 10.0549 34.0835 7.68659 32.1733 5.71396C30.2632 3.74133 27.9428 2.21262 25.3765 1.23602C27.1562 4.16133 28.0945 7.52092 28.088 10.9451C28.0875 11.6987 28.0422 12.4517 27.9525 13.1999C27.602 16.0834 26.586 18.8459 24.9846 21.2692C23.3832 23.6926 21.2404 25.7105 18.7253 27.1636V27.1636Z" fill="url(#paint3_linear_139_286)"/>
<path fill-rule="evenodd" clip-rule="evenodd" d="M3.39172 18.7457C6.06526 14.9346 10.0619 12.2555 14.603 11.2302C19.144 10.205 23.9041 10.9072 27.9557 13.1999C28.0469 12.4518 28.0922 11.6988 28.0911 10.9451C28.0971 7.52142 27.16 4.16224 25.3828 1.23602C22.5472 0.157408 19.492 -0.21609 16.4801 0.147665C13.4682 0.511419 10.5898 1.60153 8.09254 3.3242C5.59529 5.04687 3.55399 7.35051 2.1443 10.0369C0.734603 12.7233 -0.00126879 15.7119 1.6422e-06 18.7457V29.4531C0.00194671 28.7162 0.0471635 27.9802 0.135418 27.2486C0.501293 24.1887 1.6201 21.2673 3.39172 18.7457V18.7457Z" fill="url(#paint4_linear_139_286)"/>
<path fill-rule="evenodd" clip-rule="evenodd" d="M0 40.5258L9.44767 35.0146C13.6876 37.4307 18.7031 38.0968 23.4267 36.8711C28.1502 35.6453 32.209 32.6246 34.7391 28.4516C32.0826 29.4605 29.2313 29.8516 26.4012 29.5954C23.5712 29.3391 20.8365 28.4423 18.4044 26.9727C15.9723 25.5031 13.9064 23.4993 12.3634 21.1131C10.8203 18.7269 9.84047 16.0209 9.49806 13.2C7.07656 14.5729 4.99074 16.4672 3.39172 18.7457C1.6201 21.2673 0.501291 24.1887 0.135417 27.2486C0.0471618 27.9802 0.00194507 28.7163 0 29.4531L0 29.768C0.0251938 31.9725 0 32.7031 0 29.768V40.5289L0 40.5258Z" fill="url(#paint5_linear_139_286)"/>
<path fill-rule="evenodd" clip-rule="evenodd" d="M0 29.7649C0 32.7 0.0251938 31.9693 0 29.7649V29.7649Z" fill="#F9C400"/>
<path fill-rule="evenodd" clip-rule="evenodd" d="M0 29.7649C0 32.7 0.0251938 31.9693 0 29.7649V29.7649Z" fill="#D52E7A"/>
<path fill-rule="evenodd" clip-rule="evenodd" d="M0 29.7649C0 32.7 0.0251938 31.9693 0 29.7649V29.7649Z" fill="#00718F"/>
<defs>
<linearGradient id="paint0_linear_139_286" x1="1.11604e-05" y1="14.7305" x2="28.0879" y2="14.7305" gradientUnits="userSpaceOnUse">
<stop stop-color="#DB5713"/>
<stop offset="1" stop-color="#F7931E"/>
</linearGradient>
<linearGradient id="paint1_linear_139_286" x1="1132.14" y1="1394.36" x2="2245.55" y2="1394.36" gradientUnits="userSpaceOnUse">
<stop stop-color="#DB5713"/>
<stop offset="1" stop-color="#F7931E"/>
</linearGradient>
<linearGradient id="paint2_linear_139_286" x1="0" y1="2342.72" x2="3832.42" y2="2342.72" gradientUnits="userSpaceOnUse">
<stop stop-color="#DB5713"/>
<stop offset="1" stop-color="#F7931E"/>
</linearGradient>
<linearGradient id="paint3_linear_139_286" x1="28.8154" y1="30.39" x2="31.9646" y2="4.40889" gradientUnits="userSpaceOnUse">
<stop stop-color="#DB5713"/>
<stop offset="1" stop-color="#FF732C"/>
</linearGradient>
<linearGradient id="paint4_linear_139_286" x1="-1.57461" y1="16.6909" x2="28.0281" y2="3.77904" gradientUnits="userSpaceOnUse">
<stop stop-color="#F26820"/>
<stop offset="0.572917" stop-color="#FD691E"/>
<stop offset="1" stop-color="#EB641E"/>
</linearGradient>
<linearGradient id="paint5_linear_139_286" x1="0.472364" y1="24.249" x2="30.5475" y2="34.1691" gradientUnits="userSpaceOnUse">
<stop stop-color="#DB5713"/>
<stop offset="0.604167" stop-color="#F16E2A"/>
<stop offset="1" stop-color="#FF7D39"/>
</linearGradient>
</defs>
</svg>
